<?xml version="1.0" standalone="no"?>
<!DOCTYPE svg PUBLIC "-//W3C//DTD SVG 20010904//EN"
 "http://www.w3.org/TR/2001/REC-SVG-20010904/DTD/svg10.dtd">
<svg version="1.0" xmlns="http://www.w3.org/2000/svg"
 width="150.000000pt" height="180.000000pt" viewBox="0 0 150.000000 180.000000"
 preserveAspectRatio="xMidYMid meet">

<g transform="translate(0.000000,180.000000) scale(0.100000,-0.100000)"
fill="#000000" stroke="none">
<path d="M0 900 l0 -900 750 0 750 0 0 900 0 900 -750 0 -750 0 0 -900z m768
738 c-2 -39 -7 -53 -18 -53 -10 0 -16 12 -18 39 -4 47 3 66 23 66 13 0 15 -10
13 -52z m-245 -85 c32 -42 34 -63 8 -63 -18 0 -71 65 -71 88 0 24 36 10 63
-25z m527 26 c0 -18 -60 -89 -75 -89 -28 0 -26 21 5 60 30 37 70 54 70 29z
m-174 -177 c47 -24 110 -91 129 -136 51 -123 8 -246 -113 -328 -92 -61 -102
-75 -102 -140 l0 -58 -35 0 -35 0 0 109 c0 125 5 136 85 179 62 34 95 81 95
136 0 141 -188 201 -270 86 -44 -62 -35 -147 21 -195 l30 -25 -17 -40 c-10
-22 -25 -40 -34 -40 -31 0 -86 49 -115 101 -56 104 -32 226 62 308 24 22 63
47 86 55 57 21 160 15 213 -12z m-542 -19 c66 -31 50 -67 -18 -39 -33 14 -45
34 -29 49 8 9 7 9 47 -10z m886 -1 c0 -20 -64 -57 -81 -47 -19 12 -8 36 24 50
43 19 57 18 57 -3z m-426 -143 c30 -14 51 -60 42 -94 -24 -96 -166 -80 -166
20 0 66 61 102 124 74z m-456 -68 c-5 -24 -111 -23 -116 1 -3 14 6 17 45 20
60 4 75 0 71 -21z m947 4 c0 -18 -7 -20 -55 -20 -43 0 -55 3 -58 17 -3 13 6
18 40 21 64 6 73 4 73 -18z m-769 -429 c-12 -17 -28 -32 -34 -34 -23 -7 -23
27 -1 57 18 25 25 28 40 18 17 -11 17 -13 -5 -41z m512 19 c24 -34 23 -55 -3
-55 -21 0 -56 62 -43 77 15 19 21 16 46 -22z m-254 -101 c10 -4 16 -18 16 -35
0 -22 -6 -30 -25 -35 -43 -11 -73 34 -43 64 13 13 28 15 52 6z"/>
</g>
</svg>
